<svg width="20" height="20" viewBox="0 0 20 20" fill="none" xmlns="http://www.w3.org/2000/svg">
<g id="next 3" clip-path="url(#clip0_3910_36)">
<g id="Group">
<g id="Group_2">
<path id="Vector" d="M10.5243 4.41407L19.8238 12.8961C20.0391 13.0923 20.1651 13.3616 20.1785 13.6543C20.192 13.947 20.0912 14.2267 19.8949 14.4418L19.2704 15.1266C18.8635 15.5723 18.1702 15.6042 17.7247 15.1977L9.91555 8.07513L2.78508 15.893C2.58874 16.1081 2.31962 16.2342 2.02709 16.2477C1.73423 16.2611 1.45466 16.1602 1.23925 15.9641L0.554713 15.3394C0.339455 15.1431 0.213465 14.8739 0.200006 14.5812C0.186547 14.2885 0.287299 14.0088 0.483639 13.7937L8.97325 4.48539C9.17022 4.26977 9.44065 4.14388 9.7337 4.13106C10.0278 4.11688 10.3085 4.21743 10.5243 4.41407Z" fill="white"/>
</g>
</g>
</g>
<defs>
<clipPath id="clip0_3910_36">
<rect width="20" height="20" fill="white" transform="matrix(0 -1 -1 -2.23281e-08 19.9999 19.9999)"/>
</clipPath>
</defs>
</svg>
